# xmcd
#
# Track frame offsets:
# 150
# 14349
# 29449
# 43485
# 58223
# 72315
# 86638
# 101878
# 115876
# 128800
# 141390
# 156158
# 169134
# 180194
# 192513
# 205152
# 216736
# 229196
# 241876
# 254193
# 267189
#
# Disc length: 3735 seconds
#
# Revision: 0
# Processed by: cddbd v1.4PL0 Copyright (c) Steve Scherf et al.
# Submitted via: Axialis_AX_CDPlayer 2.6
#
DISCID=4b0e9515
DTITLE=Blind Boy Fuller - Jitterbug Rag
DYEAR=1900
DGENRE=
TTITLE0=Baby, I Don't Have to Worry ('Cause this stuff is here)
TTITLE1=I'm Climbing on top of the hill
TTITLE2=Ain't it a cryin' shame?
TTITLE3=Baby you gotta change your mind
TTITLE4=Rag mama rag
TTITLE5=Homesick and lonesome blues
TTITLE6=Black and tan
TTITLE7=Cat man blues
TTITLE8=Untrue blues
TTITLE9=Mamie
TTITLE10=Workin Man Blues
TTITLE11=New Louise Louise Blues
TTITLE12=Mistreater, You're Going to be Sorry
TTITLE13=Pistol Slapper Blues
TTITLE14=Piccolo Rag
TTITLE15=Jitterbug Rag
TTITLE16=Big Leg Woman Gets My Pay
TTITLE17=You've Got Something There
TTITLE18=I Want  Some of Your Pie
TTITLE19=Step it Up and Go
TTITLE20=Three Ball Blues
EXTD=
EXTT0=
EXTT1=
EXTT2=
EXTT3=
EXTT4=
EXTT5=
EXTT6=
EXTT7=
EXTT8=
EXTT9=
EXTT10=
EXTT11=
EXTT12=
EXTT13=
EXTT14=
EXTT15=
EXTT16=
EXTT17=
EXTT18=
EXTT19=
EXTT20=
PLAYORDER=
